<svg width="201" height="40" viewBox="0 0 201 40" fill="none" xmlns="http://www.w3.org/2000/svg">
<g clip-path="url(#clip0_7_163)">
<path d="M6.30369 0.979333V6.58456H6.44705C9.25497 2.25507 13.2988 0.090332 18.5686 0.090332C20.892 0.090332 22.998 0.582547 24.8814 1.56698C26.7699 2.55141 28.0997 4.22393 28.8709 6.57953C30.1265 4.51524 31.7826 2.91806 33.844 1.78797C35.9005 0.657886 38.1597 0.090332 40.6315 0.090332C42.5199 0.090332 44.2254 0.301281 45.748 0.718157C47.2706 1.13503 48.5807 1.78797 49.6682 2.67195C50.7558 3.55593 51.6012 4.70108 52.2092 6.10239C52.8123 7.50369 53.1188 9.18626 53.1188 11.1551V39.1009H46.9493V14.1034C46.9493 12.9231 46.8504 11.8181 46.6576 10.7835C46.4648 9.7488 46.099 8.85477 45.5701 8.09134C45.0362 7.3279 44.2996 6.73021 43.3554 6.2832C42.4112 5.84121 41.1901 5.62022 39.6922 5.62022C36.6421 5.62022 34.2494 6.50419 32.5093 8.27215C30.7692 10.0401 29.8991 12.4007 29.8991 15.349V39.0908H23.7296V14.1034C23.7296 12.8729 23.6208 11.7428 23.4033 10.7131C23.1858 9.67848 22.8101 8.78446 22.2762 8.02102C21.7423 7.25759 21.0304 6.66994 20.1357 6.25306C19.2409 5.83619 18.089 5.62524 16.69 5.62524C14.9005 5.62524 13.363 5.99189 12.0827 6.73021C10.8023 7.46853 9.75921 8.35251 8.96331 9.38215C8.1674 10.4118 7.58406 11.4816 7.22319 12.5916C6.86231 13.6966 6.6794 14.6207 6.6794 15.359V39.1009H0.5V1.96376L6.30369 0.979333Z" fill="#3196D7"/>
<path d="M57.4195 12.2198C58.1907 9.78884 59.3525 7.67432 60.9047 5.88125C62.452 4.08818 64.3652 2.67181 66.6392 1.64218C68.9132 0.60752 71.5234 0.0952148 74.4747 0.0952148C77.426 0.0952148 80.1004 0.612543 82.3497 1.64218C84.599 2.67683 86.4973 4.08818 88.0446 5.88125C89.592 7.67432 90.7537 9.78884 91.5298 12.2198C92.301 14.6507 92.6916 17.2725 92.6916 20.0751C92.6916 22.8777 92.301 25.4845 91.5298 27.8903C90.7537 30.3011 89.5969 32.4006 88.0446 34.1937C86.4973 35.9867 84.599 37.388 82.3497 38.3976C80.1004 39.4021 77.4754 39.9094 74.4747 39.9094C71.474 39.9094 68.9083 39.4021 66.6392 38.3976C64.3652 37.388 62.452 35.9917 60.9047 34.1937C59.3574 32.4006 58.1957 30.3011 57.4195 27.8903C56.6434 25.4845 56.2578 22.8777 56.2578 20.0751C56.2578 17.2725 56.6434 14.6557 57.4195 12.2198ZM63.6929 26.2328C64.296 28.0259 65.1314 29.5277 66.1943 30.7331C67.2571 31.9385 68.5029 32.8576 69.9316 33.4955C71.3603 34.1334 72.873 34.4548 74.4697 34.4548C76.0665 34.4548 77.5792 34.1334 79.0079 33.4955C80.4366 32.8576 81.6823 31.9335 82.7452 30.7331C83.808 29.5277 84.6435 28.0309 85.2466 26.2328C85.8497 24.4398 86.1562 22.3855 86.1562 20.0751C86.1562 17.7647 85.8547 15.7155 85.2466 13.9174C84.6435 12.1243 83.808 10.6125 82.7452 9.382C81.6823 8.15147 80.4366 7.22229 79.0079 6.57939C77.5792 5.94152 76.0714 5.62008 74.4697 5.62008C72.868 5.62008 71.3603 5.94152 69.9316 6.57939C68.5029 7.21726 67.2571 8.15147 66.1943 9.382C65.1314 10.6125 64.296 12.1243 63.6929 13.9174C63.0898 15.7105 62.7833 17.7647 62.7833 20.0751C62.7833 22.3855 63.0848 24.4398 63.6929 26.2328Z" fill="#3196D7"/>
<path d="M115.442 0.979492H102.85C98.9006 0.979492 95.7021 4.22912 95.7021 8.24217V39.101H101.872L101.941 7.27783L114.082 7.33811L115.437 0.984515L115.442 0.979492Z" fill="#3196D7"/>
<path d="M194.316 32.7974V39.0957H200.485L200.5 32.7974H194.316Z" fill="#3196D7"/>
<path d="M132.927 24.7212H143.264C143.264 25.6755 143.051 26.5394 142.616 27.8001C142.132 29.2014 141.4 30.437 140.441 31.4766C139.487 32.5113 138.296 33.34 136.897 33.9327C135.498 34.5304 133.851 34.8317 132.017 34.8317C130.06 34.8317 128.315 34.44 126.842 33.6665C125.359 32.888 124.093 31.8282 123.084 30.5224C122.066 29.2064 121.285 27.6695 120.761 25.9468C120.232 24.214 119.965 22.3807 119.965 20.4972C119.965 18.6138 120.202 16.6549 120.667 14.8117C121.127 12.9884 121.854 11.341 122.822 9.92466C123.782 8.52335 125.037 7.37318 126.55 6.51431C128.058 5.66047 129.897 5.22351 132.022 5.22351C133.337 5.22351 134.598 5.38423 135.765 5.70065C136.916 6.01205 137.96 6.4892 138.864 7.112C139.759 7.72978 140.525 8.52838 141.133 9.49272C141.697 10.3767 142.092 11.4515 142.33 12.667H148.262C147.906 10.4771 147.243 8.56856 146.294 7.00151C145.32 5.40432 144.099 4.06328 142.666 3.01858C141.237 1.97891 139.591 1.20542 137.777 0.723255C135.982 0.246108 134.044 0 132.027 0C129.051 0 126.411 0.572577 124.177 1.69764C121.947 2.8227 120.059 4.34957 118.561 6.24812C117.073 8.13661 115.936 10.3616 115.185 12.8629C114.438 15.3491 114.058 18.006 114.058 20.7584C114.058 23.2446 114.463 25.6705 115.269 27.9709C116.075 30.2863 117.266 32.3606 118.808 34.1386C120.356 35.9216 122.259 37.3631 124.469 38.4129C126.683 39.4676 129.224 40 132.027 40C134.237 40 136.457 39.558 138.632 38.6841C140.53 37.9206 142.181 36.7253 143.551 35.118L144.668 39.1612H148.657V19.4977H132.937V24.7212H132.927Z" fill="#3196D7"/>
<path d="M155.356 12.2198C156.127 9.78884 157.289 7.67432 158.841 5.88125C160.388 4.08818 162.301 2.67181 164.575 1.64218C166.85 0.60752 169.46 0.0952148 172.411 0.0952148C175.362 0.0952148 178.037 0.612543 180.286 1.64218C182.535 2.67683 184.434 4.08818 185.981 5.88125C187.528 7.67432 188.69 9.78884 189.466 12.2198C190.237 14.6507 190.628 17.2725 190.628 20.0751C190.628 22.8777 190.237 25.4845 189.466 27.8903C188.69 30.3011 187.533 32.4006 185.981 34.1937C184.434 35.9867 182.535 37.388 180.286 38.3976C178.037 39.4021 175.412 39.9094 172.411 39.9094C169.41 39.9094 166.845 39.4021 164.575 38.3976C162.301 37.388 160.388 35.9917 158.841 34.1937C157.294 32.4006 156.132 30.3011 155.356 27.8903C154.58 25.4845 154.194 22.8777 154.194 20.0751C154.194 17.2725 154.58 14.6557 155.356 12.2198ZM161.629 26.2328C162.232 28.0259 163.068 29.5277 164.131 30.7331C165.193 31.9385 166.439 32.8576 167.868 33.4955C169.297 34.1334 170.809 34.4548 172.406 34.4548C174.003 34.4548 175.516 34.1334 176.944 33.4955C178.373 32.8576 179.619 31.9335 180.681 30.7331C181.744 29.5277 182.58 28.0309 183.183 26.2328C183.786 24.4398 184.093 22.3855 184.093 20.0751C184.093 17.7647 183.791 15.7155 183.183 13.9174C182.58 12.1243 181.744 10.6125 180.681 9.382C179.619 8.15147 178.373 7.22229 176.944 6.57939C175.516 5.94152 174.008 5.62008 172.406 5.62008C170.804 5.62008 169.297 5.94152 167.868 6.57939C166.439 7.21726 165.193 8.15147 164.131 9.382C163.068 10.6125 162.232 12.1243 161.629 13.9174C161.026 15.7105 160.72 17.7647 160.72 20.0751C160.72 22.3855 161.021 24.4398 161.629 26.2328Z" fill="#3196D7"/>
</g>
<defs>
<clipPath id="clip0_7_163">
<rect width="200" height="40" fill="white" transform="translate(0.5)"/>
</clipPath>
</defs>
</svg>
